<mxfile host="app.diagrams.net" modified="2023-12-13T03:16:20.300Z" agent="Mozilla/5.0 (Macintosh; Intel Mac OS X 10_15_7) AppleWebKit/537.36 (KHTML, like Gecko) Chrome/119.0.0.0 Safari/537.36" etag="bmVE6ecjG-ouur1sMwqX" version="22.1.8" type="device">
  <diagram name="Page-1" id="EeO2Q27IZ5L0UbrwwxsU">
    <mxGraphModel dx="3013" dy="2390" grid="1" gridSize="10" guides="1" tooltips="1" connect="1" arrows="1" fold="1" page="1" pageScale="1" pageWidth="827" pageHeight="1169" math="0" shadow="0">
      <root>
        <mxCell id="0" />
        <mxCell id="1" parent="0" />
        <mxCell id="LrXoGZKuN1GcTQUu76Cz-57" value="AZ - us-east-1b" style="rounded=1;arcSize=10;dashed=1;strokeColor=#F59D56;fillColor=none;gradientColor=none;dashPattern=8 4;strokeWidth=2;spacingTop=1;movableLabel=1;align=left;glass=0;verticalAlign=top;horizontal=1;fontColor=#FF8000;fontStyle=1" vertex="1" parent="1">
          <mxGeometry x="460" y="446.5" width="410" height="250" as="geometry">
            <mxPoint x="2" y="-32" as="offset" />
          </mxGeometry>
        </mxCell>
        <mxCell id="LrXoGZKuN1GcTQUu76Cz-59" value="Private subnet" style="points=[[0,0],[0.25,0],[0.5,0],[0.75,0],[1,0],[1,0.25],[1,0.5],[1,0.75],[1,1],[0.75,1],[0.5,1],[0.25,1],[0,1],[0,0.75],[0,0.5],[0,0.25]];outlineConnect=0;gradientColor=none;html=1;whiteSpace=wrap;fontSize=12;fontStyle=1;container=1;pointerEvents=0;collapsible=0;recursiveResize=0;shape=mxgraph.aws4.group;grIcon=mxgraph.aws4.group_security_group;grStroke=0;strokeColor=#147EBA;fillColor=#E6F2F8;verticalAlign=top;align=left;spacingLeft=30;fontColor=#147EBA;dashed=0;" vertex="1" parent="1">
          <mxGeometry x="480" y="462.5" width="370" height="230" as="geometry" />
        </mxCell>
        <mxCell id="2" value="AWS Account" style="points=[[0,0],[0.25,0],[0.5,0],[0.75,0],[1,0],[1,0.25],[1,0.5],[1,0.75],[1,1],[0.75,1],[0.5,1],[0.25,1],[0,1],[0,0.75],[0,0.5],[0,0.25]];outlineConnect=0;gradientColor=none;html=1;whiteSpace=wrap;fontSize=12;fontStyle=0;container=1;pointerEvents=0;collapsible=0;recursiveResize=0;shape=mxgraph.aws4.group;grIcon=mxgraph.aws4.group_account;strokeColor=#CD2264;fillColor=none;verticalAlign=top;align=left;spacingLeft=30;fontColor=#CD2264;dashed=0;" parent="1" vertex="1">
          <mxGeometry x="-130" y="-150" width="1230" height="930" as="geometry" />
        </mxCell>
        <mxCell id="3" value="Internet&#xa;gateway" style="sketch=0;outlineConnect=0;fontColor=#232F3E;gradientColor=none;strokeColor=#232F3E;fillColor=#ffffff;dashed=0;verticalLabelPosition=bottom;verticalAlign=top;align=center;html=1;fontSize=12;fontStyle=0;aspect=fixed;shape=mxgraph.aws4.resourceIcon;resIcon=mxgraph.aws4.internet_gateway;flipH=0;flipV=0;direction=east;movable=1;resizable=1;rotatable=1;deletable=1;editable=1;locked=0;connectable=1;movableLabel=1;" parent="2" vertex="1">
          <mxGeometry x="1050" y="180" width="60" height="60" as="geometry">
            <mxPoint x="50" y="-50" as="offset" />
          </mxGeometry>
        </mxCell>
        <mxCell id="15" value="Public subnet" style="points=[[0,0],[0.25,0],[0.5,0],[0.75,0],[1,0],[1,0.25],[1,0.5],[1,0.75],[1,1],[0.75,1],[0.5,1],[0.25,1],[0,1],[0,0.75],[0,0.5],[0,0.25]];outlineConnect=0;gradientColor=none;html=1;whiteSpace=wrap;fontSize=12;fontStyle=0;container=1;pointerEvents=0;collapsible=0;recursiveResize=0;shape=mxgraph.aws4.group;grIcon=mxgraph.aws4.group_security_group;grStroke=0;strokeColor=#248814;fillColor=#E9F3E6;verticalAlign=top;align=left;spacingLeft=30;fontColor=#248814;dashed=0;" parent="1" vertex="1">
          <mxGeometry x="50" y="107" width="370" height="230" as="geometry" />
        </mxCell>
        <mxCell id="4" value="Region -&amp;nbsp;us-east-1" style="points=[[0,0],[0.25,0],[0.5,0],[0.75,0],[1,0],[1,0.25],[1,0.5],[1,0.75],[1,1],[0.75,1],[0.5,1],[0.25,1],[0,1],[0,0.75],[0,0.5],[0,0.25]];outlineConnect=0;gradientColor=none;html=1;whiteSpace=wrap;fontSize=12;fontStyle=0;container=0;pointerEvents=0;collapsible=0;recursiveResize=0;shape=mxgraph.aws4.group;grIcon=mxgraph.aws4.group_region;strokeColor=#147EBA;fillColor=none;verticalAlign=top;align=left;spacingLeft=30;fontColor=#147EBA;dashed=1;" parent="1" vertex="1">
          <mxGeometry x="-110" y="-110" width="1180" height="870" as="geometry" />
        </mxCell>
        <mxCell id="5" value="&lt;font color=&quot;#00ff00&quot;&gt;VPC&lt;/font&gt;" style="points=[[0,0],[0.25,0],[0.5,0],[0.75,0],[1,0],[1,0.25],[1,0.5],[1,0.75],[1,1],[0.75,1],[0.5,1],[0.25,1],[0,1],[0,0.75],[0,0.5],[0,0.25]];outlineConnect=0;gradientColor=none;html=1;whiteSpace=wrap;fontSize=12;fontStyle=0;container=0;pointerEvents=0;collapsible=0;recursiveResize=0;shape=mxgraph.aws4.group;grIcon=mxgraph.aws4.group_vpc;strokeColor=#248814;fillColor=none;verticalAlign=top;align=left;spacingLeft=30;fontColor=#AAB7B8;dashed=0;" parent="1" vertex="1">
          <mxGeometry x="-80" y="60" width="1120" height="680" as="geometry" />
        </mxCell>
        <mxCell id="8" value="Private subnet" style="points=[[0,0],[0.25,0],[0.5,0],[0.75,0],[1,0],[1,0.25],[1,0.5],[1,0.75],[1,1],[0.75,1],[0.5,1],[0.25,1],[0,1],[0,0.75],[0,0.5],[0,0.25]];outlineConnect=0;gradientColor=none;html=1;whiteSpace=wrap;fontSize=12;fontStyle=0;container=1;pointerEvents=0;collapsible=0;recursiveResize=0;shape=mxgraph.aws4.group;grIcon=mxgraph.aws4.group_security_group;grStroke=0;strokeColor=#147EBA;fillColor=#E6F2F8;verticalAlign=top;align=left;spacingLeft=30;fontColor=#147EBA;dashed=0;" parent="1" vertex="1">
          <mxGeometry x="50" y="456.5" width="370" height="230" as="geometry" />
        </mxCell>
        <mxCell id="32" value="Internet" style="sketch=0;outlineConnect=0;fontColor=#232F3E;gradientColor=none;strokeColor=#232F3E;fillColor=#ffffff;dashed=0;verticalLabelPosition=bottom;verticalAlign=top;align=center;html=1;fontSize=12;fontStyle=0;aspect=fixed;shape=mxgraph.aws4.resourceIcon;resIcon=mxgraph.aws4.internet;movableLabel=1;" parent="1" vertex="1">
          <mxGeometry x="920" y="-140" width="60" height="60" as="geometry">
            <mxPoint x="-1" y="-90" as="offset" />
          </mxGeometry>
        </mxCell>
        <mxCell id="35" style="edgeStyle=orthogonalEdgeStyle;rounded=0;orthogonalLoop=1;jettySize=auto;html=1;" parent="1" source="3" target="32" edge="1">
          <mxGeometry relative="1" as="geometry" />
        </mxCell>
        <mxCell id="LrXoGZKuN1GcTQUu76Cz-80" value="Auto Scaling group" style="points=[[0,0],[0.25,0],[0.5,0],[0.75,0],[1,0],[1,0.25],[1,0.5],[1,0.75],[1,1],[0.75,1],[0.5,1],[0.25,1],[0,1],[0,0.75],[0,0.5],[0,0.25]];outlineConnect=0;gradientColor=none;html=1;whiteSpace=wrap;fontSize=12;fontStyle=1;container=0;pointerEvents=0;collapsible=0;recursiveResize=0;shape=mxgraph.aws4.groupCenter;grIcon=mxgraph.aws4.group_auto_scaling_group;grStroke=1;strokeColor=#D86613;fillColor=none;verticalAlign=top;align=center;fontColor=#D86613;dashed=1;spacingTop=25;" vertex="1" parent="1">
          <mxGeometry x="10" y="370" width="870" height="360" as="geometry" />
        </mxCell>
        <mxCell id="6" value="AZ - us-east-1a" style="rounded=1;arcSize=10;dashed=1;strokeColor=#F59D56;fillColor=none;gradientColor=none;dashPattern=8 4;strokeWidth=2;spacingTop=1;movableLabel=1;align=left;glass=0;verticalAlign=top;horizontal=1;fontColor=#FF8000;fontStyle=1" parent="1" vertex="1">
          <mxGeometry x="30" y="90" width="410" height="260" as="geometry">
            <mxPoint x="2" y="-32" as="offset" />
          </mxGeometry>
        </mxCell>
        <mxCell id="7" value="AZ - us-east-1a" style="rounded=1;arcSize=10;dashed=1;strokeColor=#F59D56;fillColor=none;gradientColor=none;dashPattern=8 4;strokeWidth=2;spacingTop=1;movableLabel=1;align=left;glass=0;verticalAlign=top;horizontal=1;fontColor=#FF8000;fontStyle=1" parent="1" vertex="1">
          <mxGeometry x="30" y="450" width="410" height="250" as="geometry">
            <mxPoint x="2" y="-32" as="offset" />
          </mxGeometry>
        </mxCell>
        <mxCell id="LrXoGZKuN1GcTQUu76Cz-58" value="AZ - us-east-1b" style="rounded=1;arcSize=10;dashed=1;strokeColor=#F59D56;fillColor=none;gradientColor=none;dashPattern=8 4;strokeWidth=2;spacingTop=1;movableLabel=1;align=left;glass=0;verticalAlign=top;horizontal=1;fontColor=#FF8000;fontStyle=1" vertex="1" parent="1">
          <mxGeometry x="460" y="90" width="410" height="260" as="geometry">
            <mxPoint x="2" y="-32" as="offset" />
          </mxGeometry>
        </mxCell>
        <mxCell id="LrXoGZKuN1GcTQUu76Cz-66" value="Public subnet" style="points=[[0,0],[0.25,0],[0.5,0],[0.75,0],[1,0],[1,0.25],[1,0.5],[1,0.75],[1,1],[0.75,1],[0.5,1],[0.25,1],[0,1],[0,0.75],[0,0.5],[0,0.25]];outlineConnect=0;gradientColor=none;html=1;whiteSpace=wrap;fontSize=12;fontStyle=1;container=1;pointerEvents=0;collapsible=0;recursiveResize=0;shape=mxgraph.aws4.group;grIcon=mxgraph.aws4.group_security_group;grStroke=0;strokeColor=#248814;fillColor=#E9F3E6;verticalAlign=top;align=left;spacingLeft=30;fontColor=#248814;dashed=0;" vertex="1" parent="1">
          <mxGeometry x="480" y="107" width="370" height="230" as="geometry" />
        </mxCell>
        <mxCell id="LrXoGZKuN1GcTQUu76Cz-78" value="NAT gateway" style="sketch=0;outlineConnect=0;fontColor=#232F3E;gradientColor=none;strokeColor=#232F3E;fillColor=#ffffff;dashed=0;verticalLabelPosition=bottom;verticalAlign=top;align=center;html=1;fontSize=12;fontStyle=0;aspect=fixed;shape=mxgraph.aws4.resourceIcon;resIcon=mxgraph.aws4.nat_gateway;movableLabel=1;" vertex="1" parent="LrXoGZKuN1GcTQUu76Cz-66">
          <mxGeometry x="302" y="9" width="60" height="60" as="geometry">
            <mxPoint y="-96" as="offset" />
          </mxGeometry>
        </mxCell>
        <mxCell id="LrXoGZKuN1GcTQUu76Cz-79" value="NAT gateway" style="sketch=0;outlineConnect=0;fontColor=#232F3E;gradientColor=none;strokeColor=#232F3E;fillColor=#ffffff;dashed=0;verticalLabelPosition=bottom;verticalAlign=top;align=center;html=1;fontSize=12;fontStyle=0;aspect=fixed;shape=mxgraph.aws4.resourceIcon;resIcon=mxgraph.aws4.nat_gateway;movableLabel=1;" vertex="1" parent="1">
          <mxGeometry x="354" y="113" width="60" height="60" as="geometry">
            <mxPoint y="-96" as="offset" />
          </mxGeometry>
        </mxCell>
        <mxCell id="LrXoGZKuN1GcTQUu76Cz-86" value="&lt;div style=&quot;color: rgb(204, 204, 204); background-color: rgb(31, 31, 31); font-family: Menlo, Monaco, &amp;quot;Courier New&amp;quot;, monospace; line-height: 18px;&quot;&gt;SecurityGroupASG&lt;/div&gt;" style="fillColor=none;strokeColor=#DD3522;verticalAlign=top;fontStyle=0;fontColor=#DD3522;whiteSpace=wrap;html=1;" vertex="1" parent="1">
          <mxGeometry x="100" y="500" width="720" height="180" as="geometry" />
        </mxCell>
        <mxCell id="LrXoGZKuN1GcTQUu76Cz-94" style="edgeStyle=orthogonalEdgeStyle;rounded=0;orthogonalLoop=1;jettySize=auto;html=1;fontFamily=Helvetica;fontSize=12;fontColor=#DD3522;entryX=1;entryY=0.5;entryDx=0;entryDy=0;" edge="1" parent="1" source="LrXoGZKuN1GcTQUu76Cz-92" target="LrXoGZKuN1GcTQUu76Cz-100">
          <mxGeometry relative="1" as="geometry">
            <Array as="points">
              <mxPoint x="950" y="608" />
            </Array>
          </mxGeometry>
        </mxCell>
        <mxCell id="LrXoGZKuN1GcTQUu76Cz-101" style="edgeStyle=orthogonalEdgeStyle;rounded=0;orthogonalLoop=1;jettySize=auto;html=1;fontFamily=Helvetica;fontSize=12;fontColor=#DD3522;" edge="1" parent="1" source="LrXoGZKuN1GcTQUu76Cz-92" target="3">
          <mxGeometry relative="1" as="geometry" />
        </mxCell>
        <mxCell id="LrXoGZKuN1GcTQUu76Cz-92" value="" style="sketch=0;outlineConnect=0;fontColor=#232F3E;gradientColor=none;fillColor=#8C4FFF;strokeColor=none;dashed=0;verticalLabelPosition=bottom;verticalAlign=top;align=center;html=1;fontSize=12;fontStyle=0;aspect=fixed;pointerEvents=1;shape=mxgraph.aws4.application_load_balancer;fontFamily=Helvetica;" vertex="1" parent="1">
          <mxGeometry x="911" y="250" width="78" height="78" as="geometry" />
        </mxCell>
        <mxCell id="LrXoGZKuN1GcTQUu76Cz-102" value="" style="sketch=0;outlineConnect=0;fontColor=#232F3E;gradientColor=none;fillColor=#7AA116;strokeColor=none;dashed=0;verticalLabelPosition=bottom;verticalAlign=top;align=center;html=1;fontSize=12;fontStyle=0;aspect=fixed;pointerEvents=1;shape=mxgraph.aws4.bucket;fontFamily=Helvetica;" vertex="1" parent="1">
          <mxGeometry x="260" y="-74" width="75" height="78" as="geometry" />
        </mxCell>
        <mxCell id="LrXoGZKuN1GcTQUu76Cz-107" style="edgeStyle=orthogonalEdgeStyle;rounded=0;orthogonalLoop=1;jettySize=auto;html=1;fontFamily=Helvetica;fontSize=12;fontColor=#DD3522;" edge="1" parent="1" source="LrXoGZKuN1GcTQUu76Cz-103" target="LrXoGZKuN1GcTQUu76Cz-102">
          <mxGeometry relative="1" as="geometry" />
        </mxCell>
        <mxCell id="LrXoGZKuN1GcTQUu76Cz-103" value="&lt;div style=&quot;color: rgb(204, 204, 204); background-color: rgb(31, 31, 31); font-family: Menlo, Monaco, &amp;quot;Courier New&amp;quot;, monospace; line-height: 18px;&quot;&gt;S3IAMRole&lt;/div&gt;" style="sketch=0;outlineConnect=0;fontColor=#232F3E;gradientColor=none;fillColor=#DD344C;strokeColor=none;dashed=0;verticalLabelPosition=bottom;verticalAlign=top;align=center;html=1;fontSize=12;fontStyle=0;aspect=fixed;pointerEvents=1;shape=mxgraph.aws4.role;fontFamily=Helvetica;" vertex="1" parent="1">
          <mxGeometry x="130" y="-57" width="78" height="44" as="geometry" />
        </mxCell>
        <mxCell id="LrXoGZKuN1GcTQUu76Cz-106" style="edgeStyle=orthogonalEdgeStyle;rounded=0;orthogonalLoop=1;jettySize=auto;html=1;fontFamily=Helvetica;fontSize=12;fontColor=#DD3522;" edge="1" parent="1" source="LrXoGZKuN1GcTQUu76Cz-104" target="LrXoGZKuN1GcTQUu76Cz-103">
          <mxGeometry relative="1" as="geometry" />
        </mxCell>
        <mxCell id="LrXoGZKuN1GcTQUu76Cz-100" value="&lt;b&gt;&lt;font color=&quot;#008a00&quot;&gt;Target Group&lt;/font&gt;&lt;/b&gt;" style="whiteSpace=wrap;html=1;align=center;verticalAlign=top;fontFamily=Helvetica;fontSize=12;fillColor=none;movableLabel=1;strokeColor=#008A00;fontColor=#ffffff;" vertex="1" parent="1">
          <mxGeometry x="130" y="558" width="650" height="100" as="geometry">
            <mxPoint x="-4" y="-30" as="offset" />
          </mxGeometry>
        </mxCell>
        <mxCell id="LrXoGZKuN1GcTQUu76Cz-104" value="Instance Profile&lt;br&gt;" style="html=1;whiteSpace=wrap;strokeColor=none;fillColor=#0079D6;labelPosition=center;verticalLabelPosition=middle;verticalAlign=top;align=center;fontSize=12;outlineConnect=0;spacingTop=-6;fontColor=#FFFFFF;sketch=0;shape=mxgraph.sitemap.profile;fontFamily=Helvetica;" vertex="1" parent="1">
          <mxGeometry x="-50" y="-70" width="120" height="70" as="geometry" />
        </mxCell>
        <mxCell id="LrXoGZKuN1GcTQUu76Cz-105" style="edgeStyle=orthogonalEdgeStyle;rounded=0;orthogonalLoop=1;jettySize=auto;html=1;entryX=0;entryY=0.5;entryDx=0;entryDy=0;entryPerimeter=0;fontFamily=Helvetica;fontSize=12;fontColor=#DD3522;exitX=0;exitY=0.5;exitDx=0;exitDy=0;exitPerimeter=0;" edge="1" parent="1" source="LrXoGZKuN1GcTQUu76Cz-87" target="LrXoGZKuN1GcTQUu76Cz-104">
          <mxGeometry relative="1" as="geometry">
            <mxPoint x="130" y="611" as="sourcePoint" />
            <Array as="points">
              <mxPoint x="-100" y="611" />
              <mxPoint x="-100" y="-35" />
            </Array>
          </mxGeometry>
        </mxCell>
        <mxCell id="LrXoGZKuN1GcTQUu76Cz-109" value="&lt;div style=&quot;color: rgb(204, 204, 204); background-color: rgb(31, 31, 31); font-family: Menlo, Monaco, &amp;quot;Courier New&amp;quot;, monospace; line-height: 18px;&quot;&gt;&lt;div style=&quot;line-height: 18px;&quot;&gt;SecurityGroupBastion&lt;/div&gt;&lt;/div&gt;" style="fillColor=none;strokeColor=#DD3522;verticalAlign=top;fontStyle=0;fontColor=#DD3522;whiteSpace=wrap;html=1;" vertex="1" parent="1">
          <mxGeometry x="70" y="140" width="270" height="153" as="geometry" />
        </mxCell>
        <mxCell id="LrXoGZKuN1GcTQUu76Cz-108" value="Bastion Host" style="sketch=0;points=[[0,0,0],[0.25,0,0],[0.5,0,0],[0.75,0,0],[1,0,0],[0,1,0],[0.25,1,0],[0.5,1,0],[0.75,1,0],[1,1,0],[0,0.25,0],[0,0.5,0],[0,0.75,0],[1,0.25,0],[1,0.5,0],[1,0.75,0]];outlineConnect=0;fontColor=#232F3E;fillColor=#ED7100;strokeColor=#ffffff;dashed=0;verticalLabelPosition=bottom;verticalAlign=top;align=center;html=1;fontSize=12;fontStyle=0;aspect=fixed;shape=mxgraph.aws4.resourceIcon;resIcon=mxgraph.aws4.ec2;" vertex="1" parent="1">
          <mxGeometry x="166" y="173" width="78" height="78" as="geometry" />
        </mxCell>
        <mxCell id="LrXoGZKuN1GcTQUu76Cz-87" value="" style="sketch=0;points=[[0,0,0],[0.25,0,0],[0.5,0,0],[0.75,0,0],[1,0,0],[0,1,0],[0.25,1,0],[0.5,1,0],[0.75,1,0],[1,1,0],[0,0.25,0],[0,0.5,0],[0,0.75,0],[1,0.25,0],[1,0.5,0],[1,0.75,0]];outlineConnect=0;fontColor=#232F3E;fillColor=#ED7100;strokeColor=#ffffff;dashed=0;verticalLabelPosition=bottom;verticalAlign=top;align=center;html=1;fontSize=12;fontStyle=0;aspect=fixed;shape=mxgraph.aws4.resourceIcon;resIcon=mxgraph.aws4.ec2;" vertex="1" parent="1">
          <mxGeometry x="140" y="571.5" width="78" height="78" as="geometry" />
        </mxCell>
        <mxCell id="LrXoGZKuN1GcTQUu76Cz-88" value="" style="sketch=0;points=[[0,0,0],[0.25,0,0],[0.5,0,0],[0.75,0,0],[1,0,0],[0,1,0],[0.25,1,0],[0.5,1,0],[0.75,1,0],[1,1,0],[0,0.25,0],[0,0.5,0],[0,0.75,0],[1,0.25,0],[1,0.5,0],[1,0.75,0]];outlineConnect=0;fontColor=#232F3E;fillColor=#ED7100;strokeColor=#ffffff;dashed=0;verticalLabelPosition=bottom;verticalAlign=top;align=center;html=1;fontSize=12;fontStyle=0;aspect=fixed;shape=mxgraph.aws4.resourceIcon;resIcon=mxgraph.aws4.ec2;" vertex="1" parent="1">
          <mxGeometry x="260" y="571.5" width="78" height="78" as="geometry" />
        </mxCell>
        <mxCell id="LrXoGZKuN1GcTQUu76Cz-90" value="" style="sketch=0;points=[[0,0,0],[0.25,0,0],[0.5,0,0],[0.75,0,0],[1,0,0],[0,1,0],[0.25,1,0],[0.5,1,0],[0.75,1,0],[1,1,0],[0,0.25,0],[0,0.5,0],[0,0.75,0],[1,0.25,0],[1,0.5,0],[1,0.75,0]];outlineConnect=0;fontColor=#232F3E;fillColor=#ED7100;strokeColor=#ffffff;dashed=0;verticalLabelPosition=bottom;verticalAlign=top;align=center;html=1;fontSize=12;fontStyle=0;aspect=fixed;shape=mxgraph.aws4.resourceIcon;resIcon=mxgraph.aws4.ec2;" vertex="1" parent="1">
          <mxGeometry x="570" y="571.5" width="78" height="78" as="geometry" />
        </mxCell>
        <mxCell id="LrXoGZKuN1GcTQUu76Cz-91" value="" style="sketch=0;points=[[0,0,0],[0.25,0,0],[0.5,0,0],[0.75,0,0],[1,0,0],[0,1,0],[0.25,1,0],[0.5,1,0],[0.75,1,0],[1,1,0],[0,0.25,0],[0,0.5,0],[0,0.75,0],[1,0.25,0],[1,0.5,0],[1,0.75,0]];outlineConnect=0;fontColor=#232F3E;fillColor=#ED7100;strokeColor=#ffffff;dashed=0;verticalLabelPosition=bottom;verticalAlign=top;align=center;html=1;fontSize=12;fontStyle=0;aspect=fixed;shape=mxgraph.aws4.resourceIcon;resIcon=mxgraph.aws4.ec2;" vertex="1" parent="1">
          <mxGeometry x="690" y="571.5" width="78" height="78" as="geometry" />
        </mxCell>
      </root>
    </mxGraphModel>
  </diagram>
</mxfile>
